<svg xmlns="http://www.w3.org/2000/svg" viewBox="0 0 512 512">
  <defs><linearGradient id="bg" x1="0" y1="0" x2="1" y2="1"><stop stop-color="#081326"/><stop offset="1" stop-color="#113453"/></linearGradient></defs>
  <rect x="22" y="22" width="468" height="468" rx="105" fill="url(#bg)" stroke="#50aaff" stroke-opacity=".45" stroke-width="5"/>
  <g fill="none" stroke-linecap="round"><path d="M118 153 250 250 118 358M250 250 395 138M250 250h145M250 250l145 118" stroke="#37cdf4" stroke-width="27"/><path d="M118 153 250 250 118 358M250 250 395 138M250 250h145M250 250l145 118" stroke="#84e2ff" stroke-width="9"/></g>
  <g stroke="#9be8ff" stroke-width="7"><circle cx="118" cy="153" r="46" fill="#319aff"/><circle cx="118" cy="358" r="46" fill="#48dbb4"/><circle cx="395" cy="138" r="39" fill="#319aff"/><circle cx="395" cy="250" r="39" fill="#48dbb4"/><circle cx="395" cy="368" r="39" fill="#7484ff"/><circle cx="250" cy="250" r="63" fill="#f5f9ff"/></g>
  <path d="M226 219v62h42v27l45-58-45-58v27z" fill="#0e2749"/>
</svg>
